<svg width="421" height="7" viewBox="0 0 421 7" fill="none" xmlns="http://www.w3.org/2000/svg">
<path d="M32.6068 4.61892C85.4155 3.97047 138.262 3.07811 191.126 2.02918C243.506 0.997115 295.923 -0.330781 348.08 0.13524C372.499 0.348201 397.22 -0.0471926 420.986 1.91276C418.209 2.17438 415.368 2.60283 412.695 2.55755C388.454 2.18239 364.309 1.26669 339.97 1.37151C299.696 1.54757 259.328 2.29879 218.977 2.91941C178.811 3.53359 138.626 4.26973 98.4618 4.95315C73.696 5.37611 48.9299 5.79042 20.8957 6.26687C20.5686 6.131 19.7318 5.90896 18.8338 5.91432C12.8479 5.9674 6.86202 6.02914 0.87661 6.09952L0.837022 4.96588C11.4501 4.85519 22.0173 4.74611 32.6068 4.61892Z" fill="#D0CECC"/>
</svg>
